HIERARCHY
ROOT RootJoint
{
    OFFSET   0.000000   0.000000   0.000000
    CHANNELS 6 Xposition Yposition Zposition Xrotation Yrotation Zrotation
    JOINT pelvis_lowerback
    {
        OFFSET   0.000000   0.093605   0.000000
        CHANNELS 3 Xrotation Yrotation Zrotation
        JOINT lowerback_torso
        {
            OFFSET   0.000000   0.100000   0.000000
            CHANNELS 3 Xrotation Yrotation Zrotation
            JOINT torso_head
            {
                OFFSET   0.000000   0.282350   0.000000
                CHANNELS 3 Xrotation Yrotation Zrotation
                End Site
                {
                    OFFSET   0.000000   0.192650   0.000000
                }
            }
            JOINT rTorso_Clavicle
            {
                OFFSET  -0.001000   0.157500   0.000000
                CHANNELS 3 Xrotation Yrotation Zrotation
                JOINT rShoulder
                {
                    OFFSET  -0.117647   0.000000   0.000000
                    CHANNELS 3 Xrotation Yrotation Zrotation
                    JOINT rElbow
                    {
                        OFFSET  -0.245000   0.000000   0.000000
                        CHANNELS 3 Xrotation Yrotation Zrotation
                        JOINT rWrist
                        {
                            OFFSET  -0.240000   0.000000   0.000000
                            CHANNELS 3 Xrotation Yrotation Zrotation
                            End Site
                            {
                                OFFSET  -0.116353  -0.002500   0.000000
                            }
                        }
                    }
                }
            }
            JOINT lTorso_Clavicle
            {
                OFFSET   0.001000   0.157500   0.000000
                CHANNELS 3 Xrotation Yrotation Zrotation
                JOINT lShoulder
                {
                    OFFSET   0.117647   0.000000   0.000000
                    CHANNELS 3 Xrotation Yrotation Zrotation
                    JOINT lElbow
                    {
                        OFFSET   0.245000   0.000000   0.000000
                        CHANNELS 3 Xrotation Yrotation Zrotation
                        JOINT lWrist
                        {
                            OFFSET   0.240000   0.000000   0.000000
                            CHANNELS 3 Xrotation Yrotation Zrotation
                            End Site
                            {
                                OFFSET   0.116353  -0.002500   0.000000
                            }
                        }
                    }
                }
            }
        }
    }
    JOINT rHip
    {
        OFFSET  -0.100000  -0.051395   0.000000
        CHANNELS 3 Xrotation Yrotation Zrotation
        JOINT rKnee
        {
            OFFSET   0.000000  -0.410000   0.000000
            CHANNELS 3 Xrotation Yrotation Zrotation
            JOINT rAnkle
            {
                OFFSET   0.000000  -0.390000   0.000000
                CHANNELS 3 Xrotation Yrotation Zrotation
                JOINT rToeJoint
                {
                    OFFSET   0.000000  -0.050000   0.130000
                    CHANNELS 3 Xrotation Yrotation Zrotation
                    End Site
                    {
                        OFFSET  -0.010000   0.002000   0.060000
                    }
                }
            }
        }
    }
    JOINT lHip
    {
        OFFSET   0.100000  -0.051395   0.000000
        CHANNELS 3 Xrotation Yrotation Zrotation
        JOINT lKnee
        {
            OFFSET   0.000000  -0.410000   0.000000
            CHANNELS 3 Xrotation Yrotation Zrotation
            JOINT lAnkle
            {
                OFFSET   0.000000  -0.390000   0.000000
                CHANNELS 3 Xrotation Yrotation Zrotation
                JOINT lToeJoint
                {
                    OFFSET   0.000000  -0.050000   0.130000
                    CHANNELS 3 Xrotation Yrotation Zrotation
                    End Site
                    {
                        OFFSET   0.010000   0.002000   0.060000
                    }
                }
            }
        }
    }
}
MOTION
Frames: 17
Frame Time:   0.008333
 -2.439227   0.869870   4.091164  -7.338413  12.188717  -0.177429  12.752656   5.067914  -2.021427   3.642272   2.992076   0.209094  -0.667381   0.220097   1.672940   0.357723  -2.897464  -4.978892   2.854557  12.489587  56.758073 179.990807  75.850676 -179.992909  -1.108156   5.236218  -5.641082   5.992497  14.072519   2.457822  10.736811   5.280580 -57.729269  -0.007373 -84.721427  -0.002474  -3.720665  -3.277325   9.244776   5.980027  -1.353438  -6.432315  29.038799   0.004162  -0.002386 -27.559615   0.512225  -1.382049  -2.892936  -0.003710   0.005067 -12.774851  -5.201075  15.915425  41.966560   0.006825  -0.004940 -17.228520   3.556571   0.362884  -6.140651   0.005030   0.000665
 -2.440930   0.870068   4.092966  -7.345446  12.221279  -0.058275  12.719384   5.216706  -2.025053   3.628705   3.040434   0.187131  -0.654318   0.095375   1.613468   0.156168  -2.644100  -5.194545   2.379182  12.764606  57.012867 179.992900  75.879878 -179.994573  -1.143161   5.355613  -5.702558   5.999175  14.312194   2.652010  11.408039   5.224573 -58.016344   0.001319 -83.472054   0.006606  -3.762743  -3.385938   9.107724   6.600815  -1.423268  -6.410386  28.082222   0.004073  -0.002648 -27.936682   0.630225  -1.397162  -2.312229  -0.003441   0.004812 -13.107171  -5.031401  15.256841  42.073523   0.005961  -0.004106 -17.679747   3.691986   0.254904  -6.034312   0.004668   0.000737
 -2.442418   0.870229   4.094734  -7.322777  12.249259   0.060422  12.677352   5.371480  -2.018654   3.601537   3.093194   0.163371  -0.650685  -0.023824   1.554299  -0.030792  -2.402105  -5.389283   1.932861  13.019469  57.258639 179.994664  75.919764 -179.996001  -1.185844   5.399472  -5.776387   6.020515  14.543828   2.830585  12.050689   5.180925 -58.279661   0.007600 -82.270935   0.012973  -3.831332  -3.301291   8.971148   7.198397  -1.491248  -6.406260  27.106821   0.003939  -0.002810 -28.297442   0.726559  -1.416972  -1.784012  -0.003093   0.004432 -13.459424  -4.852031  14.599519  42.124347   0.005005  -0.003358 -18.102959   3.819067   0.154020  -5.938172   0.004310   0.000767
 -2.443729   0.870329   4.096464  -7.290073  12.261094   0.168775  12.640670   5.532958  -2.002281   3.574939   3.158122   0.146755  -0.650001  -0.134970   1.499557  -0.205852  -2.171544  -5.569860   1.513067  13.257138  57.490858 179.996070  75.958518 -179.997147  -1.229052   5.422737  -5.849830   6.047849  14.770325   2.996583  12.658705   5.143946 -58.525161   0.011953 -81.143960   0.017183  -3.906308  -3.158978   8.846214   7.763125  -1.553374  -6.407462  26.164386   0.003782  -0.002771 -28.630176   0.811334  -1.439217  -1.300973  -0.002722   0.003971 -13.809009  -4.679622  13.966924  42.157081   0.004148  -0.002737 -18.498401   3.938248   0.060450  -5.850567   0.003953   0.000754
 -2.444689   0.871005   4.098585  -7.376986  12.363565   0.206891  12.649451   5.666065  -1.885851   3.592309   3.212137   0.182715  -0.642469  -0.239400   1.453660  -0.351737  -1.964865  -5.704689   1.137731  13.469379  57.709403 179.997293  76.010949 -179.998197  -1.275294   5.389916  -5.912202   6.079429  14.983031   3.102227  13.233950   5.105109 -58.772821   0.015257 -80.080330   0.020850  -3.984039  -2.967113   8.706069   8.217159  -1.701741  -6.300549  25.687726   0.003433  -0.002360 -28.413473   0.834198  -1.539567  -0.877927  -0.002163   0.003260 -14.024669  -4.514918  13.424169  42.174051   0.003401  -0.002204 -18.866289   4.050220  -0.025723  -5.760927   0.003683   0.000818
 -2.445378   0.871681   4.100935  -7.446592  12.460582   0.288774  12.619991   5.803376  -1.822868   3.599240   3.270386   0.213177  -0.634627  -0.336415   1.413550  -0.478516  -1.778184  -5.833745   0.792717  13.670771  57.927037 179.998177  76.052443 -179.998931  -1.321618   5.361510  -5.948106   6.117102  15.196660   3.231710  13.779257   5.074425 -58.994463   0.018829 -79.092249   0.024571  -4.059154  -2.787167   8.573199   8.698569  -1.848811  -6.254608  25.161068   0.003111  -0.002045 -28.218464   0.846212  -1.647155  -0.469019  -0.001635   0.002673 -14.250574  -4.338976  12.847059  42.205173   0.002870  -0.001789 -19.210105   4.155054  -0.106336  -5.685096   0.003375   0.000828
 -2.445859   0.872288   4.103420  -7.496977  12.533103   0.378443  12.572574   5.949132  -1.774150   3.589479   3.338545   0.235063  -0.631084  -0.426426   1.373577  -0.598375  -1.601764  -5.959822   0.467612  13.859698  58.131465 179.998820  76.087651 -179.999445  -1.365029   5.347516  -5.974951   6.155016  15.406796   3.368225  14.291288   5.051563 -59.193196   0.021578 -78.171420   0.027306  -4.130110  -2.622779   8.469064   9.176604  -1.978797  -6.236050  24.621701   0.002807  -0.001753 -28.047187   0.858758  -1.752365  -0.094150  -0.001183   0.002186 -14.481574  -4.168722  12.286729  42.240154   0.002451  -0.001463 -19.531003   4.253184  -0.181338  -5.618059   0.003057   0.000795
 -2.446076   0.872977   4.106097  -7.440862  12.713305   0.531743  12.427718   6.053732  -1.778133   3.517072   3.374541   0.230988  -0.648056  -0.527286   1.295294  -0.698580  -1.468989  -6.110332   0.198012  14.063986  58.437394 -179.998752  76.345126 179.997967  -1.411770   5.462657  -6.000160   6.136780  15.613325   3.530634  14.730067   5.010356 -59.404061   0.029818 -76.845255   0.037131  -4.174629  -2.704639   8.352442   9.621853  -2.143483  -6.285612  24.000567   0.002380  -0.001988 -27.870581   0.776292  -1.843967   0.277079  -0.000872   0.001785 -14.810233  -3.970909  11.656403  42.016197   0.000884  -0.001175 -19.771460   4.361936  -0.216554  -5.557729   0.002747   0.000817
 -2.446097   0.873598   4.108887  -7.361614  12.907338   0.700376  12.274657   6.166437  -1.793507   3.423470   3.413960   0.207780  -0.676508  -0.621461   1.217503  -0.782207  -1.346188  -6.250936  -0.045008  14.249819  58.724602 -179.996491  76.602695 179.995608  -1.468633   5.477784  -6.024212   6.123096  15.809297   3.674405  15.144082   4.979256 -59.599633   0.034660 -75.578419   0.043566  -4.240115  -2.632575   8.281000  10.063682  -2.310363  -6.359956  23.366514   0.001957  -0.002261 -27.713109   0.673813  -1.936794   0.618262  -0.000602   0.001454 -15.166198  -3.776265  11.044760  41.750628  -0.000500  -0.001026 -19.997867   4.463606  -0.249605  -5.500308   0.002465   0.000830
 -2.445954   0.874110   4.111765  -7.276874  13.089056   0.872062  12.125794   6.290235  -1.814983   3.327226   3.464954   0.175025  -0.707133  -0.708677   1.143017  -0.860639  -1.228492  -6.386071  -0.273353  14.422537  58.991756 -179.994619  76.845315 179.993705  -1.526419   5.463289  -6.045569   6.114834  15.999626   3.804780  15.536014   4.952889 -59.784752   0.036590 -74.391932   0.046788  -4.309795  -2.519410   8.226455  10.500557  -2.468468  -6.449753  22.746807   0.001570  -0.002439 -27.581697   0.570488  -2.024740   0.930857  -0.000378   0.001180 -15.528029  -3.594977  10.473680  41.486296  -0.001485  -0.000930 -20.209940   4.558728  -0.280215  -5.448919   0.002189   0.000814
 -2.445659   0.874502   4.114723  -7.191167  13.252240   1.042240  11.984219   6.421526  -1.840376   3.233884   3.526233   0.137092  -0.737047  -0.789562   1.072530  -0.936264  -1.114350  -6.514990  -0.490194  14.584423  59.240920 -179.993182  77.071516 179.992277  -1.582203   5.445418  -6.063867   6.111114  16.184081   3.923528  15.906640   4.929973 -59.959844   0.036488 -73.283108   0.047596  -4.378773  -2.398292   8.179558  10.930486  -2.615356  -6.551052  22.151415   0.001224  -0.002508 -27.477920   0.471581  -2.105706   1.217276  -0.000197   0.000955 -15.887645  -3.429721   9.949473  41.231854  -0.002111  -0.000855 -20.408186   4.647820  -0.308398  -5.402565   0.001925   0.000775
 -2.445220   0.874772   4.117756  -7.105245  13.395995   1.208811  11.850472   6.556493  -1.868151   3.145029   3.594704   0.096331  -0.765493  -0.864690   1.006116  -1.009027  -1.003887  -6.636720  -0.696064  14.736471  59.473953 -179.992168  77.281956 179.991292  -1.635337   5.431000  -6.078742   6.110895  16.361759   4.031626  16.256500   4.909637 -60.125345   0.035064 -72.247303   0.046705  -4.445879  -2.277012   8.136722  11.352145  -2.750917  -6.661939  21.583618   0.000916  -0.002487 -27.401320   0.378490  -2.179235   1.479735  -0.000054   0.000771 -16.241490  -3.280510   9.472988  40.988777  -0.002455  -0.000790 -20.593402   4.731303  -0.334288  -5.360534   0.001679   0.000722
 -2.444638   0.874925   4.120861  -7.018569  13.520701   1.370623  11.724222   6.692029  -1.897121   3.060918   3.667407   0.054205  -0.792327  -0.934543   0.943665  -1.078419  -0.897676  -6.750814  -0.890901  14.879220  59.692281 -179.991535  77.477715 179.990697  -1.685836   5.420925  -6.090089   6.113209  16.531887   4.129815  16.586144   4.891151 -60.281849   0.032838 -71.279918   0.044673  -4.510793  -2.157864   8.095902  11.764596  -2.875590  -6.781492  21.043859   0.000641  -0.002397 -27.350614   0.291516  -2.245510   1.720255   0.000059   0.000620 -16.587669  -3.146482   9.042837  40.757037  -0.002592  -0.000730 -20.766417   4.809544  -0.358051  -5.322306   0.001454   0.000661
 -2.443990   0.875033   4.124012  -6.837104  13.730972   1.526898  11.544608   6.793979  -1.937508   2.926584   3.710506  -0.017701  -0.844734  -1.008154   0.907107  -1.125435  -0.833097  -6.879083  -1.081562  15.050834  59.976514 -179.989926  77.742817 179.989019  -1.731262   5.448999  -6.120743   6.088067  16.726561   4.212858  16.777192   4.921761 -60.405152   0.035454 -70.041270   0.049075  -4.554952  -2.223065   8.013852  12.111978  -2.978158  -6.888861  20.487125   0.000267  -0.002863 -27.291317   0.094157  -2.267514   1.649311   0.000058   0.000494 -17.041115  -3.026609   8.610606  40.387548  -0.003101  -0.000970 -20.778937   4.955005  -0.299687  -5.306066   0.001194   0.000581
 -2.443250   0.875041   4.127229  -6.647348  13.951981   1.677121  11.375939   6.900312  -1.987624   2.788594   3.755804  -0.099813  -0.899968  -1.076969   0.873337  -1.166781  -0.771689  -7.000732  -1.258503  15.210418  60.243870 -179.988415  77.994893 179.987511  -1.779078   5.445543  -6.152158   6.062034  16.910607   4.285617  16.953428   4.958934 -60.515101   0.035862 -68.864620   0.050925  -4.613269  -2.185791   7.996193  12.452758  -3.086257  -6.993554  19.943915  -0.000046  -0.003234 -27.249911  -0.109462  -2.287845   1.591994   0.000054   0.000394 -17.506446  -2.913213   8.207066  40.001460  -0.003478  -0.001256 -20.790794   5.091924  -0.245069  -5.281555   0.000998   0.000546
 -2.442411   0.874937   4.130511  -6.459963  14.163498   1.818409  11.220540   7.013543  -2.044271   2.658969   3.808957  -0.187092  -0.952616  -1.140703   0.840428  -1.206838  -0.710893  -7.116706  -1.426181  15.359853  60.493115 -179.987176  78.230543 179.986324  -1.825835   5.434326  -6.179565   6.040175  17.086922   4.350554  17.121100   4.996028 -60.619233   0.034525 -67.763386   0.050555  -4.673867  -2.120304   7.995546  12.790123  -3.192344  -7.097265  19.424077  -0.000293  -0.003449 -27.229837  -0.305683  -2.304716   1.546124   0.000048   0.000314 -17.966860  -2.809200   7.837590  39.626663  -0.003646  -0.001478 -20.802545   5.219866  -0.194093  -5.259512   0.000832   0.000506
 -2.441466   0.874722   4.133862  -6.275799  14.359706   1.949321  11.077234   7.131401  -2.105341   2.539106   3.869087  -0.277052  -1.001690  -1.199795   0.808614  -1.245978  -0.650653  -7.226368  -1.585524  15.500258  60.725967 -179.986275  78.450122 179.985498  -1.870591   5.423780  -6.201996   6.022991  17.256249   4.407719  17.281527   5.032133 -60.718884   0.032117 -66.734236   0.048663  -4.733650  -2.047558   7.997329  13.123380  -3.293564  -7.200495  18.929399  -0.000486  -0.003523 -27.231124  -0.491255  -2.317750   1.509749   0.000042   0.000251 -18.416658  -2.715264   7.502300  39.269342  -0.003638  -0.001617 -20.813888   5.339419  -0.146463  -5.239771   0.000691   0.000463
